<svg xmlns="http://www.w3.org/2000/svg" viewBox="0 0 60.1 65.11"><defs><style>.cls-1{fill:#1a1a1a;}</style></defs><title>icon--black</title><g id="Layer_2" data-name="Layer 2"><g id="brand"><g id="icon--black"><path class="cls-1" d="M53,32.53l-.19-.19c0,.24.09.37.1.51a2.92,2.92,0,0,1,0,.6,3.25,3.25,0,0,1-1,2,12.9,12.9,0,0,1-1.29,1.13c-.78.6-1.58,1.18-2.4,1.74-3.06,2.1-6.22,4-9.41,5.93q-5.49,3.25-11.14,6.21c-1.87,1-3.76,1.88-5.67,2.77a16.13,16.13,0,0,1-6.48,1.49,19.91,19.91,0,0,1-3.72-.26,20.62,20.62,0,0,1-4.82-1.38c-.29-.12-.57-.27-.86-.4a1,1,0,0,0-.26,0l.34.25,1.32.89c4.19,2.75,8.52,5.27,13,7.61,1.82,1,3.66,1.89,5.56,2.71a15.54,15.54,0,0,0,2.67.93,2.73,2.73,0,0,0,1.28,0,13.26,13.26,0,0,0,1.64-.51c1.3-.5,2.55-1.09,3.8-1.7,3.47-1.71,6.85-3.59,10.17-5.56,2.59-1.53,5.14-3.12,7.6-4.85a26.36,26.36,0,0,0,2.52-1.94,12.17,12.17,0,0,0,.93-1,2.3,2.3,0,0,0,.53-1.07,16.59,16.59,0,0,0-.19-8.16A21.31,21.31,0,0,0,53,32.53Z"/><path class="cls-1" d="M60.09,30.5a110.11,110.11,0,0,0-.53-11.07A16.49,16.49,0,0,0,59,16.51a2.8,2.8,0,0,0-.68-1.18A14,14,0,0,0,57,14.09c-1.07-.85-2.18-1.63-3.32-2.38A157.1,157.1,0,0,0,39,3.14c-1.63-.84-3.27-1.65-5-2.35A12.48,12.48,0,0,0,32,.1a3,3,0,0,0-1.61,0,16.56,16.56,0,0,0-5.13,2.64,20.34,20.34,0,0,0-6.5,9,1.29,1.29,0,0,0,0,.21l.26-.21a2.49,2.49,0,0,1,.93-.52,3.34,3.34,0,0,1,1.87,0,15,15,0,0,1,1.42.48c1.28.49,2.52,1.09,3.76,1.69,3.2,1.57,6.33,3.27,9.44,5,3.83,2.17,7.61,4.41,11.29,6.81,1.51,1,3,2,4.48,3a15.15,15.15,0,0,1,3.16,3,19.93,19.93,0,0,1,4,8.71,13.45,13.45,0,0,1,.28,2.17c0,.11,0,.23.13.33,0-.08,0-.12,0-.16.08-1.29.18-2.57.23-3.86C60.09,35.74,60.11,33.12,60.09,30.5Z"/><path class="cls-1" d="M14.48,52.27c.77,0,1.54-.08,2.31-.14.38,0,.76-.11,1.24-.18l-.4-.15a2.53,2.53,0,0,1-1-.63,3.81,3.81,0,0,1-.6-.83A4.74,4.74,0,0,1,15.6,49a25.2,25.2,0,0,1-.41-3c-.17-1.87-.28-3.74-.35-5.62-.06-1.45-.08-2.89-.12-4.34-.11-4.3-.06-8.59.08-12.89.08-2.65.25-5.29.48-7.93,0-.48.09-1,.17-1.45a16,16,0,0,1,1.74-5.1,20.22,20.22,0,0,1,6.38-7.14c.1-.07.24-.11.29-.29l-.11,0-1.24.6A158.11,158.11,0,0,0,8.07,10c-1.58,1-3.14,2.06-4.63,3.2A14.65,14.65,0,0,0,1.77,14.7a2.56,2.56,0,0,0-.66,1.09C1,16.33.83,16.88.73,17.43a36.78,36.78,0,0,0-.41,3.71Q.11,23.88.05,26.63C0,30.8,0,35,.19,39.13c.09,1.76.22,3.52.45,5.26A13.18,13.18,0,0,0,1,46.16,3.16,3.16,0,0,0,2.16,48l.1.08a16.4,16.4,0,0,0,6.16,3.4A19.72,19.72,0,0,0,14.48,52.27Z"/></g></g></g></svg>