<svg xmlns="http://www.w3.org/2000/svg" viewBox="0 0 214.73 66.32"><defs><style>.cls-1{fill:#fff;}</style></defs><title>logo--white</title><g id="Layer_2" data-name="Layer 2"><g id="brand"><g id="logo--white"><path class="cls-1" d="M207.53,33.14l-.2-.19c0,.24.09.38.1.52a3,3,0,0,1,0,.61,3.31,3.31,0,0,1-1,2,13.14,13.14,0,0,1-1.32,1.15c-.8.61-1.61,1.21-2.44,1.78-3.11,2.14-6.34,4.12-9.59,6q-5.59,3.31-11.35,6.33c-1.9,1-3.83,1.92-5.78,2.82a16.43,16.43,0,0,1-6.6,1.51,20.28,20.28,0,0,1-3.79-.26A21,21,0,0,1,160.71,54c-.29-.13-.58-.28-.87-.41a1,1,0,0,0-.26,0l.35.26,1.34.9c4.27,2.8,8.68,5.37,13.2,7.76,1.86,1,3.73,1.92,5.66,2.76a15.83,15.83,0,0,0,2.72.95,2.78,2.78,0,0,0,1.3,0,13.51,13.51,0,0,0,1.67-.52c1.32-.51,2.6-1.11,3.87-1.73,3.54-1.74,7-3.66,10.36-5.66,2.64-1.56,5.24-3.18,7.75-4.94a26.85,26.85,0,0,0,2.57-2,12.4,12.4,0,0,0,.94-1,2.35,2.35,0,0,0,.54-1.09,16.9,16.9,0,0,0-.19-8.32A21.71,21.71,0,0,0,207.53,33.14Z"/><path class="cls-1" d="M214.72,31.06a112.16,112.16,0,0,0-.54-11.28,16.8,16.8,0,0,0-.54-3,2.85,2.85,0,0,0-.69-1.2,14.28,14.28,0,0,0-1.39-1.26c-1.09-.86-2.22-1.66-3.38-2.42A160,160,0,0,0,193.28,3.2c-1.66-.86-3.33-1.68-5.06-2.39A12.71,12.71,0,0,0,186.11.1a3.08,3.08,0,0,0-1.64,0,16.87,16.87,0,0,0-5.22,2.69,20.72,20.72,0,0,0-6.62,9.13,1.31,1.31,0,0,0,0,.22l.27-.22a2.53,2.53,0,0,1,.95-.53,3.4,3.4,0,0,1,1.9,0,15.24,15.24,0,0,1,1.45.49c1.31.5,2.57,1.11,3.83,1.72,3.26,1.6,6.45,3.33,9.61,5.12,3.9,2.21,7.75,4.49,11.5,6.93,1.54,1,3.05,2,4.56,3.09a15.43,15.43,0,0,1,3.22,3,20.3,20.3,0,0,1,4,8.87,13.7,13.7,0,0,1,.28,2.21c0,.11,0,.24.13.33,0-.08,0-.12,0-.16.08-1.31.18-2.62.24-3.93C214.72,36.4,214.74,33.73,214.72,31.06Z"/><path class="cls-1" d="M168.26,53.24c.79,0,1.57-.08,2.36-.15.39,0,.78-.11,1.26-.18l-.41-.15a2.58,2.58,0,0,1-1-.65,3.88,3.88,0,0,1-.61-.85,4.83,4.83,0,0,1-.44-1.37,25.67,25.67,0,0,1-.42-3.08c-.18-1.9-.28-3.81-.35-5.72-.06-1.47-.09-2.95-.12-4.42-.11-4.38-.06-8.75.08-13.13.08-2.7.26-5.39.49-8.08,0-.49.1-1,.17-1.48A16.26,16.26,0,0,1,171,8.79a20.6,20.6,0,0,1,6.49-7.28c.1-.07.24-.12.29-.3l-.11,0-1.26.61a161.05,161.05,0,0,0-14.71,8.37c-1.61,1-3.2,2.09-4.71,3.26a14.92,14.92,0,0,0-1.71,1.5,2.6,2.6,0,0,0-.67,1.11c-.15.55-.28,1.1-.38,1.66a37.46,37.46,0,0,0-.42,3.78q-.21,2.79-.27,5.6c-.09,4.25-.09,8.49.14,12.73.1,1.79.22,3.58.46,5.36a13.42,13.42,0,0,0,.36,1.8,3.22,3.22,0,0,0,1.18,1.84l.1.09a16.7,16.7,0,0,0,6.27,3.46A20.09,20.09,0,0,0,168.26,53.24Z"/><path class="cls-1" d="M96.84,40.76a10.58,10.58,0,0,1-15.69,0,10.57,10.57,0,0,1-15.7,0,10.58,10.58,0,0,1-15.69,0,10.58,10.58,0,0,1-15.69,0,10.58,10.58,0,0,1-15.66,0l-.41.41L8.64,50.54a1.19,1.19,0,0,1-1.08.38,6.12,6.12,0,0,1-1.74-.52A11,11,0,0,1,3.6,49c-.41-.33-.42-.56,0-.93q5.14-5.15,10.3-10.28a6.3,6.3,0,0,0,1.35-1.74,5.19,5.19,0,1,0-9.84-2.9,5.1,5.1,0,0,0,1.31,4.17c.38.42.82.79,1.23,1.19l2,2c.32.32.32.59,0,.86a9.57,9.57,0,0,1-3,1.72,8,8,0,0,1-1.14.25A.86.86,0,0,1,5,43.12c-.91-.93-1.88-1.81-2.7-2.82A10.09,10.09,0,0,1,0,33a10.5,10.5,0,0,1,20.81-1c.09.54.12,1.09.16,1.63a6.24,6.24,0,0,0,.76,2.78,5.19,5.19,0,0,0,9.57-1.58,4.27,4.27,0,0,0,.07-.8c0-1.37,0-2.75,0-4.12,0-.44.21-.65.62-.6a10.1,10.1,0,0,1,3,.75,11.76,11.76,0,0,1,1.17.67,1.11,1.11,0,0,1,.56,1.07c0,.69,0,1.39,0,2.08a4.73,4.73,0,0,0,1.41,3.48,5,5,0,0,0,5.18,1.4A4.9,4.9,0,0,0,47,34.82a5.15,5.15,0,0,0-4.53-6.24c-.25,0-.51,0-.76,0H32.15c-.66,0-.79-.12-.72-.77a9.23,9.23,0,0,1,.78-2.95,10.25,10.25,0,0,1,.69-1.15,1,1,0,0,1,.93-.47h8.1a10,10,0,0,1,4.41,1,10.33,10.33,0,0,1,6,8,10.73,10.73,0,0,1,.13,1.63,5.19,5.19,0,0,0,10.33.68,3.29,3.29,0,0,0,0-.47q0-5,0-9.92c0-.71.12-.83.81-.75a9.42,9.42,0,0,1,2.84.74,11,11,0,0,1,1.13.65,1.13,1.13,0,0,1,.55,1.07c0,.6,0,1.19,0,1.79q0,3.06,0,6.13a5.19,5.19,0,0,0,10.38,0q0-11.14,0-22.29c0-.12,0-.24,0-.36,0-.39.19-.58.56-.55A8.51,8.51,0,0,1,83.29,12,1.21,1.21,0,0,1,83.84,13c0,3,0,6.08,0,9.12q0,5.76,0,11.53a5.2,5.2,0,0,0,10.32.86,3.1,3.1,0,0,0,0-.47q0-4.94,0-9.89c0-.1,0-.19,0-.29,0-.45.19-.62.64-.58a9.3,9.3,0,0,1,3.45,1,7.71,7.71,0,0,1,.85.56.91.91,0,0,1,.39.75c0,.15,0,.29,0,.44,0,2.57,0,5.13,0,7.7a5.19,5.19,0,0,0,3.66,5,5,5,0,0,0,1.51.23h15.47a5.52,5.52,0,0,0,2.48-.46,5.06,5.06,0,0,0,3.05-4.71,12.31,12.31,0,0,0-.08-2,5.18,5.18,0,0,0-10.17-.25,5.23,5.23,0,0,0-.12,1.08q0,1.66,0,3.32a1.23,1.23,0,0,1-.54,1.08,7.19,7.19,0,0,1-2.73,1.17,13.1,13.1,0,0,1-1.47.24c-.42,0-.6-.12-.6-.53,0-1.92,0-3.84,0-5.76a10,10,0,0,1,2.64-6.48,10.16,10.16,0,0,1,6.89-3.48,10.46,10.46,0,0,1,11.26,8.47,14.42,14.42,0,0,1,.2,2.06,13.6,13.6,0,0,1-.11,2.62,10.53,10.53,0,0,1-9.44,8.91c-.53.05-1.07,0-1.6,0h-15A10.42,10.42,0,0,1,97,40.9l-.1-.1Zm-39,8.47a3.76,3.76,0,0,0-1.6-1.1,3.65,3.65,0,0,0-2-.15,3.74,3.74,0,0,0,.16,7.38,3.83,3.83,0,0,0,4.29-3.11,4.06,4.06,0,0,0,.86,1.82,3.75,3.75,0,0,0,1.6,1.1,3.65,3.65,0,0,0,2,.15A3.74,3.74,0,0,0,63,47.94,3.83,3.83,0,0,0,58.67,51,4.07,4.07,0,0,0,57.81,49.22Zm37.1,6.12a3.74,3.74,0,0,0,0-7.4A3.81,3.81,0,0,0,90.56,51a3.81,3.81,0,0,0-4.35-3,3.74,3.74,0,0,0,0,7.4,3.81,3.81,0,0,0,4.31-3.05A3.81,3.81,0,0,0,94.91,55.34Zm25-37.34a3.75,3.75,0,1,0-3.74-3.73A3.75,3.75,0,0,0,119.93,18Z"/></g></g></g></svg>