<svg xmlns="http://www.w3.org/2000/svg" viewBox="0 0 210.81 65.11"><defs><style>.cls-1{fill:#1a1a1a;}</style></defs><title>logo--black</title><g id="Layer_2" data-name="Layer 2"><g id="brand"><g id="logo--black"><path class="cls-1" d="M203.74,32.53l-.19-.19c0,.24.09.37.1.51a2.92,2.92,0,0,1,0,.6,3.25,3.25,0,0,1-1,2,12.9,12.9,0,0,1-1.29,1.13c-.78.6-1.58,1.18-2.4,1.74-3.06,2.1-6.22,4-9.41,5.93q-5.49,3.25-11.14,6.21c-1.87,1-3.76,1.88-5.67,2.77a16.13,16.13,0,0,1-6.48,1.49,19.91,19.91,0,0,1-3.72-.26,20.62,20.62,0,0,1-4.82-1.38c-.29-.12-.57-.27-.86-.4a1,1,0,0,0-.26,0l.34.25,1.32.89c4.19,2.75,8.52,5.27,13,7.61,1.82,1,3.66,1.89,5.56,2.71a15.54,15.54,0,0,0,2.67.93,2.73,2.73,0,0,0,1.28,0,13.26,13.26,0,0,0,1.64-.51c1.3-.5,2.55-1.09,3.8-1.7,3.47-1.71,6.85-3.59,10.17-5.56,2.59-1.53,5.14-3.12,7.6-4.85a26.36,26.36,0,0,0,2.52-1.94,12.17,12.17,0,0,0,.93-1,2.3,2.3,0,0,0,.53-1.07,16.59,16.59,0,0,0-.19-8.16A21.31,21.31,0,0,0,203.74,32.53Z"/><path class="cls-1" d="M210.8,30.5a110.11,110.11,0,0,0-.53-11.07,16.49,16.49,0,0,0-.53-2.91,2.8,2.8,0,0,0-.68-1.18,14,14,0,0,0-1.37-1.24c-1.07-.85-2.18-1.63-3.32-2.38a157.1,157.1,0,0,0-14.63-8.57c-1.63-.84-3.27-1.65-5-2.35a12.48,12.48,0,0,0-2.07-.7,3,3,0,0,0-1.61,0A16.56,16.56,0,0,0,176,2.76a20.34,20.34,0,0,0-6.5,9,1.29,1.29,0,0,0,0,.21l.26-.21a2.49,2.49,0,0,1,.93-.52,3.34,3.34,0,0,1,1.87,0,15,15,0,0,1,1.42.48c1.28.49,2.52,1.09,3.76,1.69,3.2,1.57,6.33,3.27,9.44,5,3.83,2.17,7.61,4.41,11.29,6.81,1.51,1,3,2,4.48,3a15.15,15.15,0,0,1,3.16,3,19.93,19.93,0,0,1,4,8.71,13.45,13.45,0,0,1,.28,2.17c0,.11,0,.23.13.33,0-.08,0-.12,0-.16.08-1.29.18-2.57.23-3.86C210.8,35.74,210.82,33.12,210.8,30.5Z"/><path class="cls-1" d="M165.19,52.27c.77,0,1.54-.08,2.31-.14.38,0,.76-.11,1.24-.18l-.4-.15a2.53,2.53,0,0,1-1-.63,3.81,3.81,0,0,1-.6-.83,4.74,4.74,0,0,1-.43-1.34,25.2,25.2,0,0,1-.41-3c-.17-1.87-.28-3.74-.35-5.62-.06-1.45-.08-2.89-.12-4.34-.11-4.3-.06-8.59.08-12.89.08-2.65.25-5.29.48-7.93,0-.48.09-1,.17-1.45a16,16,0,0,1,1.74-5.1,20.22,20.22,0,0,1,6.38-7.14c.1-.07.24-.11.29-.29l-.11,0-1.24.6A158.11,158.11,0,0,0,158.78,10c-1.58,1-3.14,2.06-4.63,3.2a14.65,14.65,0,0,0-1.67,1.48,2.56,2.56,0,0,0-.66,1.09c-.15.54-.28,1.08-.38,1.63a36.78,36.78,0,0,0-.41,3.71q-.21,2.74-.26,5.49c-.09,4.17-.09,8.34.14,12.5.09,1.76.22,3.52.45,5.26a13.18,13.18,0,0,0,.35,1.77A3.16,3.16,0,0,0,152.87,48l.1.08a16.4,16.4,0,0,0,6.16,3.4A19.72,19.72,0,0,0,165.19,52.27Z"/><path class="cls-1" d="M95.07,40a10.39,10.39,0,0,1-15.41,0,10.38,10.38,0,0,1-15.41,0,10.38,10.38,0,0,1-15.4,0,10.38,10.38,0,0,1-15.4,0,10.38,10.38,0,0,1-15.38,0l-.41.4-9.19,9.2A1.17,1.17,0,0,1,7.42,50a6,6,0,0,1-1.71-.51,10.82,10.82,0,0,1-2.18-1.37c-.4-.32-.41-.55,0-.91q5.05-5.05,10.11-10.1a6.19,6.19,0,0,0,1.33-1.71,5.1,5.1,0,1,0-9.66-2.85,5,5,0,0,0,1.28,4.1c.37.42.81.78,1.2,1.17l2,2c.31.32.31.57,0,.84a9.39,9.39,0,0,1-3,1.69,7.84,7.84,0,0,1-1.12.24.84.84,0,0,1-.76-.25C4,41.42,3,40.56,2.24,39.57A9.9,9.9,0,0,1,0,32.36a10.31,10.31,0,0,1,20.43-1c.09.53.12,1.07.16,1.6a6.13,6.13,0,0,0,.75,2.73,5.1,5.1,0,0,0,9.39-1.55,4.19,4.19,0,0,0,.07-.78c0-1.35,0-2.7,0-4,0-.44.21-.64.61-.59a9.92,9.92,0,0,1,2.94.74,11.55,11.55,0,0,1,1.15.65,1.09,1.09,0,0,1,.55,1.05c0,.68,0,1.36,0,2a4.65,4.65,0,0,0,1.39,3.42A4.86,4.86,0,0,0,42.57,38a4.81,4.81,0,0,0,3.57-3.83,5.05,5.05,0,0,0-4.45-6.13c-.25,0-.5,0-.75,0H31.56c-.65,0-.77-.12-.7-.76a9.06,9.06,0,0,1,.76-2.89,10.07,10.07,0,0,1,.68-1.13,1,1,0,0,1,.92-.46h8a9.81,9.81,0,0,1,4.33,1,10.15,10.15,0,0,1,5.85,7.84,10.53,10.53,0,0,1,.12,1.6,5.1,5.1,0,0,0,10.14.67,3.23,3.23,0,0,0,0-.46q0-4.87,0-9.74c0-.69.12-.81.8-.73a9.24,9.24,0,0,1,2.79.73,10.77,10.77,0,0,1,1.11.64,1.11,1.11,0,0,1,.54,1.06c0,.58,0,1.17,0,1.75q0,3,0,6a5.09,5.09,0,0,0,10.19,0q0-10.94,0-21.88c0-.12,0-.24,0-.36,0-.38.18-.57.55-.54a8.36,8.36,0,0,1,4.16,1.38,1.19,1.19,0,0,1,.53,1.06c0,3,0,6,0,9q0,5.66,0,11.32a5.1,5.1,0,0,0,10.14.85,3,3,0,0,0,0-.46q0-4.85,0-9.7c0-.1,0-.19,0-.29,0-.44.18-.61.63-.57a9.13,9.13,0,0,1,3.39.95,7.57,7.57,0,0,1,.84.55.89.89,0,0,1,.39.73c0,.14,0,.29,0,.43,0,2.52,0,5,0,7.56A5.1,5.1,0,0,0,101.29,38a5,5,0,0,0,1.48.23H118a5.42,5.42,0,0,0,2.44-.45,5,5,0,0,0,3-4.62,12.08,12.08,0,0,0-.08-2,5.09,5.09,0,0,0-10-.24,5.13,5.13,0,0,0-.12,1.06q0,1.63,0,3.26a1.21,1.21,0,0,1-.53,1.06A7.06,7.06,0,0,1,110,37.44a12.86,12.86,0,0,1-1.45.24c-.41,0-.59-.12-.59-.52,0-1.89,0-3.77,0-5.66a9.8,9.8,0,0,1,2.59-6.36,10,10,0,0,1,6.77-3.41A10.27,10.27,0,0,1,128.41,30a14.16,14.16,0,0,1,.2,2,13.35,13.35,0,0,1-.11,2.57,10.34,10.34,0,0,1-9.27,8.75c-.52.05-1,0-1.57,0H102.93a10.23,10.23,0,0,1-7.68-3.26l-.1-.1ZM56.75,48.32a3.69,3.69,0,0,0-1.57-1.08,3.58,3.58,0,0,0-1.94-.15,3.67,3.67,0,0,0,.16,7.24,3.76,3.76,0,0,0,4.21-3.05,4,4,0,0,0,.85,1.79A3.68,3.68,0,0,0,60,54.16a3.58,3.58,0,0,0,1.94.14,3.67,3.67,0,0,0-.16-7.24,3.76,3.76,0,0,0-4.21,3.05A4,4,0,0,0,56.75,48.32Zm36.42,6a3.68,3.68,0,0,0,0-7.26,3.74,3.74,0,0,0-4.23,3,3.74,3.74,0,0,0-4.27-3,3.68,3.68,0,0,0,0,7.26,3.74,3.74,0,0,0,4.23-3A3.74,3.74,0,0,0,93.17,54.33Zm24.56-36.66A3.68,3.68,0,1,0,114.07,14,3.68,3.68,0,0,0,117.74,17.67Z"/></g></g></g></svg>